<?xml version="1.0" encoding="UTF-8" ?>
<svg version="1.1" width="10" height="10" xmlns="http://www.w3.org/2000/svg">
<rect x="3" y="0" width="1" height="1" fill="#663931" />
<rect x="4" y="0" width="1" height="1" fill="#663931" />
<rect x="5" y="0" width="1" height="1" fill="#663931" />
<rect x="6" y="0" width="1" height="1" fill="#663931" />
<rect x="2" y="1" width="1" height="1" fill="#D9A066" />
<rect x="3" y="1" width="1" height="1" fill="#323C39" />
<rect x="4" y="1" width="1" height="1" fill="#EEC39A" />
<rect x="5" y="1" width="1" height="1" fill="#EEC39A" />
<rect x="6" y="1" width="1" height="1" fill="#323C39" />
<rect x="7" y="1" width="1" height="1" fill="#D9A066" />
<rect x="2" y="2" width="1" height="1" fill="#D9A066" />
<rect x="3" y="2" width="1" height="1" fill="#EEC39A" />
<rect x="4" y="2" width="1" height="1" fill="#EEC39A" />
<rect x="5" y="2" width="1" height="1" fill="#EEC39A" />
<rect x="6" y="2" width="1" height="1" fill="#EEC39A" />
<rect x="7" y="2" width="1" height="1" fill="#D9A066" />
<rect x="3" y="3" width="1" height="1" fill="#D9A066" />
<rect x="4" y="3" width="1" height="1" fill="#EEC39A" />
<rect x="5" y="3" width="1" height="1" fill="#EEC39A" />
<rect x="6" y="3" width="1" height="1" fill="#D9A066" />
<rect x="2" y="4" width="1" height="1" fill="#3F3F74" />
<rect x="3" y="4" width="1" height="1" fill="#3F3F74" />
<rect x="4" y="4" width="1" height="1" fill="#3F3F74" />
<rect x="5" y="4" width="1" height="1" fill="#3F3F74" />
<rect x="6" y="4" width="1" height="1" fill="#3F3F74" />
<rect x="7" y="4" width="1" height="1" fill="#3F3F74" />
<rect x="2" y="5" width="1" height="1" fill="#3F3F74" />
<rect x="3" y="5" width="1" height="1" fill="#252546" />
<rect x="4" y="5" width="1" height="1" fill="#3F3F74" />
<rect x="5" y="5" width="1" height="1" fill="#3F3F74" />
<rect x="6" y="5" width="1" height="1" fill="#252546" />
<rect x="7" y="5" width="1" height="1" fill="#3F3F74" />
<rect x="2" y="6" width="1" height="1" fill="#3F3F74" />
<rect x="3" y="6" width="1" height="1" fill="#252546" />
<rect x="4" y="6" width="1" height="1" fill="#3F3F74" />
<rect x="5" y="6" width="1" height="1" fill="#3F3F74" />
<rect x="6" y="6" width="1" height="1" fill="#252546" />
<rect x="7" y="6" width="1" height="1" fill="#3F3F74" />
<rect x="2" y="7" width="1" height="1" fill="#D9A066" />
<rect x="3" y="7" width="1" height="1" fill="#111211" />
<rect x="4" y="7" width="1" height="1" fill="#323C39" />
<rect x="5" y="7" width="1" height="1" fill="#323C39" />
<rect x="6" y="7" width="1" height="1" fill="#111211" />
<rect x="7" y="7" width="1" height="1" fill="#D9A066" />
<rect x="3" y="8" width="1" height="1" fill="#111211" />
<rect x="4" y="8" width="1" height="1" fill="#323C39" />
<rect x="5" y="8" width="1" height="1" fill="#323C39" />
<rect x="6" y="8" width="1" height="1" fill="#111211" />
<rect x="3" y="9" width="1" height="1" fill="#111211" />
<rect x="4" y="9" width="1" height="1" fill="#111211" />
<rect x="5" y="9" width="1" height="1" fill="#111211" />
<rect x="6" y="9" width="1" height="1" fill="#111211" />
</svg>